<svg width="274" height="48" viewBox="0 0 274 48" fill="none" xmlns="http://www.w3.org/2000/svg">
<path d="M44.1066 28.9139C44.0868 29.2934 44.0769 29.6829 44.0769 30.0824C44.0769 30.8814 44.1264 31.8002 44.2253 32.839C44.3243 33.8577 44.4925 34.9164 44.7299 36.015C44.9872 37.0936 45.3038 38.0325 45.6797 38.8315C46.0557 39.6105 46.4811 40.1298 46.956 40.3895L43.2458 47.5805C42.3752 47.1211 41.5342 46.4519 40.7229 45.573C39.9116 44.6742 39.1894 43.6454 38.5562 42.4869C37.9428 41.3084 37.4481 40.03 37.0721 38.6517C36.7159 37.2534 36.5378 35.8252 36.5378 34.367C36.241 34.6866 35.8156 35.176 35.2615 35.8352C34.7273 36.4944 34.0842 37.2335 33.3322 38.0524C32.6001 38.8514 31.7591 39.7004 30.8093 40.5993C29.8595 41.4782 28.8207 42.3271 27.6928 43.1461C26.5847 43.965 25.3776 44.7141 24.0716 45.3933C22.7854 46.0524 21.43 46.5518 20.0053 46.8914C19.4117 47.0512 18.7092 47.181 17.8979 47.2809C17.1064 47.3808 16.2456 47.4307 15.3156 47.4307C14.3856 47.4307 13.416 47.3608 12.4068 47.221C11.3977 47.0811 10.3984 46.8215 9.40901 46.4419C8.41963 46.0824 7.45993 45.603 6.52992 45.0037C5.61968 44.3845 4.77871 43.6155 4.00699 42.6966C3.23528 41.7578 2.5625 40.6392 1.98866 39.3408C1.4346 38.0424 1.02896 36.5343 0.771717 34.8165C0.554053 33.3783 0.385859 31.98 0.267133 30.6217C0.168195 29.2434 0.0989381 28.015 0.0593629 26.9363C0.0197876 25.9775 0 25.0587 0 24.1798V2.51685H8.04367V26.9663C8.04367 29.3233 8.23165 31.3109 8.60762 32.9288C9.00337 34.5468 9.52774 35.8552 10.1807 36.8539C10.8535 37.8327 11.6351 38.5418 12.5256 38.9813C13.4358 39.4007 14.4054 39.6105 15.4343 39.6105C16.5029 39.6105 17.611 39.4207 18.7587 39.0412C19.9261 38.6417 21.0738 38.1223 22.2017 37.4831C23.3296 36.8439 24.4179 36.1149 25.4667 35.2959C26.5352 34.4769 27.4949 33.6479 28.3458 32.809C30.3245 30.8714 31.9273 29.1036 33.1542 27.5056C34.4008 25.8876 35.3704 24.5194 36.0629 23.4007V2.51685H44.1066V28.9139Z" fill="#D8C5FF"/>
<path d="M84.49 2.51685V46.4419H77.4852V20.6142L69.8867 46.4419H63.2084L55.6099 20.6142V46.4419H48.5755V2.51685L55.6396 2.48689L66.5327 36.3745L77.4555 2.48689L84.49 2.51685Z" fill="#D8C5FF"/>
<path d="M97.4774 2.51685V9.16854C99.2385 7.55056 100.97 6.1623 102.672 5.00375C104.393 3.84519 106.075 2.89638 107.717 2.1573C109.38 1.41823 110.992 0.878901 112.556 0.539326C114.119 0.179775 115.623 0 117.067 0C119.204 0 121.193 0.349563 123.033 1.04869C124.873 1.74782 126.496 2.72659 127.901 3.98502C129.306 5.24345 130.473 6.74157 131.403 8.4794C132.333 10.1973 132.957 12.0849 133.273 14.1423C133.491 15.5805 133.649 16.9888 133.748 18.367C133.867 19.7253 133.946 20.9438 133.986 22.0225C134.025 22.9813 134.045 23.9001 134.045 24.779V46.4419H125.497V21.9925C125.497 19.0562 125.259 16.5993 124.784 14.6217C124.329 12.6442 123.696 11.0562 122.885 9.85768C122.093 8.6392 121.153 7.78027 120.065 7.2809C118.996 6.76155 117.839 6.50187 116.592 6.50187C115.286 6.50187 113.921 6.74157 112.496 7.22097C111.091 7.6804 109.706 8.27965 108.341 9.01873C106.975 9.73783 105.66 10.5368 104.393 11.4157C103.147 12.2946 102.029 13.1336 101.039 13.9326C100.07 14.7316 99.2682 15.4507 98.635 16.0899C98.0018 16.7091 97.6159 17.1386 97.4774 17.3783V46.4419H89.4337V2.51685H97.4774Z" fill="#D8C5FF"/>
<path d="M160.745 29.4831C160.745 33.0986 160.508 36.0949 160.033 38.4719C159.558 40.8489 158.855 42.7466 157.925 44.1648C157.015 45.563 155.867 46.5518 154.482 47.1311C153.117 47.7104 151.534 48 149.733 48C148.111 48 146.676 47.7603 145.43 47.2809C144.203 46.8015 143.144 46.1723 142.254 45.3933C141.363 44.6142 140.621 43.7453 140.028 42.7865C139.434 41.8277 138.959 40.8689 138.603 39.9101C138.247 38.9513 137.999 38.0424 137.861 37.1835C137.722 36.3246 137.653 35.6155 137.653 35.0562H144.717C144.717 37.2934 145.153 38.9913 146.023 40.1498C146.914 41.2884 148.051 41.8577 149.437 41.8577C150.228 41.8577 150.871 41.608 151.366 41.1086C151.861 40.5893 152.246 39.8502 152.523 38.8914C152.82 37.9326 153.018 36.784 153.117 35.4457C153.216 34.0874 153.265 32.5693 153.265 30.8914V30.8315C152.593 30.9313 151.95 31.0112 151.336 31.0712C150.743 31.1311 150.169 31.161 149.615 31.161C147.28 31.161 145.331 30.7516 143.767 29.9326C142.204 29.1136 140.948 28.035 139.998 26.6966C139.048 25.3383 138.346 23.8102 137.89 22.1124C137.455 20.3945 137.188 18.6367 137.089 16.839C137.049 16.1598 137.03 15.4707 137.03 14.7715C137.03 11.0961 137.554 7.01124 138.603 2.51685H146.231C145.261 6.73159 144.747 10.4869 144.688 13.7828C144.688 13.9226 144.688 14.0724 144.688 14.2322C144.688 15.4707 144.767 16.7391 144.925 18.0375C145.083 19.3159 145.4 20.4844 145.875 21.5431C146.369 22.5818 147.042 23.4307 147.893 24.0899C148.764 24.7291 149.872 25.0487 151.217 25.0487C151.791 25.0487 152.474 24.9688 153.265 24.809V2.51685H160.745V29.4831Z" fill="#D8C5FF"/>
<path d="M213.773 2.48689V46.4419H205.225V10.2472C203.088 10.8664 200.733 11.6055 198.16 12.4644C195.608 13.3034 192.828 14.412 189.82 15.7903C188.257 16.5094 186.664 17.3084 185.041 18.1873C183.419 19.0462 181.845 19.985 180.322 21.0037C178.798 22.0225 177.364 23.1111 176.018 24.2697C174.672 25.4082 173.495 26.6267 172.486 27.9251C171.497 29.2035 170.705 30.5518 170.111 31.97C169.538 33.3883 169.251 34.8664 169.251 36.4045C169.251 37.3633 169.399 38.1223 169.696 38.6816C170.012 39.221 170.379 39.6305 170.794 39.9101C171.21 40.1698 171.645 40.3396 172.1 40.4195C172.555 40.4794 172.931 40.5094 173.228 40.5094V47.6105C172.892 47.6105 172.357 47.5605 171.625 47.4607C170.893 47.3808 170.082 47.211 169.191 46.9513C168.301 46.6916 167.381 46.3121 166.431 45.8127C165.501 45.3134 164.64 44.6542 163.849 43.8352C163.077 42.9963 162.444 41.9775 161.949 40.779C161.454 39.5605 161.207 38.1024 161.207 36.4045C161.207 34.0674 161.632 31.8502 162.483 29.7528C163.334 27.6355 164.492 25.6479 165.956 23.7903C167.42 21.9326 169.142 20.1948 171.121 18.5768C173.119 16.9388 175.256 15.4207 177.532 14.0225C179.827 12.6242 182.212 11.3458 184.685 10.1873C187.158 9.00874 189.612 7.94007 192.046 6.98127C194.48 6.02247 196.835 5.17353 199.11 4.43446C201.406 3.67541 203.513 3.02622 205.432 2.48689H213.773Z" fill="#D8C5FF"/>
<path d="M229.877 19.206C230.827 18.9663 231.747 18.8464 232.637 18.8464C234.319 18.8464 235.872 19.216 237.297 19.9551C238.742 20.6742 239.968 21.6529 240.978 22.8914C241.987 24.1298 242.709 25.4682 243.144 26.9064C243.599 28.3246 243.827 29.7029 243.827 31.0412C243.827 31.5006 243.768 32.2996 243.649 33.4382C243.55 34.5768 243.026 36.0949 242.076 37.9925C241.146 39.8901 239.751 41.7079 237.891 43.4457C236.149 44.8839 234.369 45.9026 232.548 46.5019C230.747 47.1211 228.858 47.4307 226.879 47.4307C225.771 47.4307 224.623 47.231 223.436 46.8315C222.249 46.4519 221.131 45.8627 220.082 45.0637C219.033 44.2447 218.113 43.226 217.322 42.0075C216.55 40.789 216.055 39.5605 215.837 38.3221C215.62 37.0836 215.511 36.005 215.511 35.0861C215.511 34.1273 215.62 32.8589 215.837 31.2809C216.075 29.6829 216.767 27.5955 217.915 25.0187C218.39 23.9401 218.905 22.8015 219.459 21.603C220.013 20.3845 220.567 19.1461 221.121 17.8876C221.695 16.6292 222.259 15.3808 222.813 14.1423C223.367 12.8839 223.901 11.6854 224.415 10.5468C225.622 7.87016 226.839 5.19351 228.066 2.51685H236.496L227.918 21.1236C226.473 24.1398 225.365 26.8564 224.593 29.2734C223.842 31.6704 223.456 33.3184 223.436 34.2172C223.416 35.0961 223.406 35.5855 223.406 35.6854C223.406 37.2235 223.733 38.432 224.386 39.3109C225.058 40.1898 226.127 40.6292 227.591 40.6292C229.095 40.6292 230.431 40.2697 231.598 39.5506C232.766 38.8115 233.735 37.8926 234.507 36.794C235.279 35.6754 235.793 34.6067 236.051 33.588C236.308 32.5493 236.436 31.6804 236.436 30.9813C236.436 30.5019 236.357 29.8826 236.199 29.1236C236.06 28.3446 235.605 27.5955 234.834 26.8764C234.082 26.1373 233.003 25.7678 231.598 25.7678C231.084 25.7678 230.51 25.8277 229.877 25.9476V19.206Z" fill="#D8C5FF"/>
<path d="M274 46.5618C271.23 46.5618 268.549 46.372 265.956 45.9925C263.364 45.613 260.93 45.0437 258.655 44.2846C256.379 43.5056 254.301 42.5268 252.422 41.3483C250.542 40.1698 248.919 38.7715 247.554 37.1536C246.208 35.5156 245.16 33.6479 244.408 31.5506C243.656 29.4532 243.28 27.1161 243.28 24.5393C243.28 22.0824 243.656 19.8352 244.408 17.7978C245.16 15.7603 246.208 13.9226 247.554 12.2846C248.919 10.6467 250.542 9.21848 252.422 8C254.301 6.76155 256.379 5.73283 258.655 4.91386C260.93 4.09488 263.364 3.48564 265.956 3.08614C268.549 2.66667 271.23 2.45693 274 2.45693L273.97 9.82771C270.27 9.84769 266.995 10.2871 264.146 11.1461C261.316 11.985 258.942 13.0936 257.022 14.4719C255.103 15.8302 253.639 17.3883 252.629 19.1461C251.64 20.8839 251.126 22.6717 251.086 24.5094C251.086 24.5893 251.086 24.6692 251.086 24.7491C251.086 26.5069 251.541 28.2447 252.451 29.9625C253.362 31.6804 254.766 33.2285 256.666 34.6067C258.585 35.985 260.98 37.1036 263.849 37.9625C266.738 38.8215 270.112 39.2609 273.97 39.2809L274 46.5618Z" fill="#D8C5FF"/>
</svg>
